<svg xmlns="http://www.w3.org/2000/svg" viewBox="0 0 64 64" fill="none">
  <!-- Brain shape -->
  <path d="M32 6c-14 0-22 10-22 22 0 7 3.5 13 8.5 16.5L17 54c-.2 1.5 1 3 2.5 3h25c1.5 0 2.7-1.5 2.5-3l-1.5-9.5C50.5 41 54 35 54 28c0-12-8-22-22-22z" fill="url(#brain-grad)" stroke="#7c3aed" stroke-width="2"/>
  <!-- Brain fissure -->
  <path d="M32 10v38" stroke="#7c3aed" stroke-width="1.5" opacity="0.3"/>
  <path d="M22 20c4 2 8-1 10 2s6-2 10 1" stroke="#7c3aed" stroke-width="1.5" opacity="0.3" fill="none"/>
  <path d="M20 32c5-2 8 3 12 0s7 3 12-1" stroke="#7c3aed" stroke-width="1.5" opacity="0.3" fill="none"/>
  <!-- Neural nodes -->
  <circle cx="22" cy="22" r="3.5" fill="#a855f7"/>
  <circle cx="40" cy="20" r="3.5" fill="#7c3aed"/>
  <circle cx="26" cy="34" r="3.5" fill="#7c3aed"/>
  <circle cx="42" cy="32" r="3" fill="#a855f7"/>
  <circle cx="32" cy="44" r="3" fill="#a855f7"/>
  <!-- Synapses -->
  <line x1="22" y1="22" x2="26" y2="34" stroke="#c084fc" stroke-width="2" opacity="0.6"/>
  <line x1="40" y1="20" x2="26" y2="34" stroke="#a855f7" stroke-width="2" opacity="0.6"/>
  <line x1="40" y1="20" x2="42" y2="32" stroke="#c084fc" stroke-width="2" opacity="0.6"/>
  <line x1="26" y1="34" x2="32" y2="44" stroke="#a855f7" stroke-width="2" opacity="0.6"/>
  <line x1="42" y1="32" x2="32" y2="44" stroke="#c084fc" stroke-width="2" opacity="0.6"/>
  <line x1="22" y1="22" x2="40" y2="20" stroke="#a855f7" stroke-width="1.5" opacity="0.4"/>
  <!-- Damage cracks -->
  <path d="M14 14l4 3-2 4 5-1" stroke="#f59e0b" stroke-width="2" stroke-linecap="round" fill="none"/>
  <path d="M48 12l-3 4 2 3-4 0" stroke="#f59e0b" stroke-width="2" stroke-linecap="round" fill="none"/>
  <!-- Spark dots -->
  <circle cx="14" cy="14" r="1.5" fill="#fbbf24"/>
  <circle cx="48" cy="12" r="1.5" fill="#fbbf24"/>
  <defs>
    <linearGradient id="brain-grad" x1="10" y1="6" x2="54" y2="57">
      <stop offset="0%" stop-color="#ede9fe"/>
      <stop offset="100%" stop-color="#ddd6fe"/>
    </linearGradient>
  </defs>
</svg>
